<?xml version="1.0" standalone="no"?>
<!DOCTYPE svg PUBLIC "-//W3C//DTD SVG 20010904//EN"
 "http://www.w3.org/TR/2001/REC-SVG-20010904/DTD/svg10.dtd">
<svg version="1.0" xmlns="http://www.w3.org/2000/svg"
 width="512.000000pt" height="512.000000pt" viewBox="0 0 512.000000 512.000000"
 preserveAspectRatio="xMidYMid meet">

<g transform="translate(0.000000,512.000000) scale(0.100000,-0.100000)"
fill="#000000" stroke="none">
<path d="M2465 4981 c-22 -10 -54 -34 -72 -52 -61 -64 -63 -79 -63 -392 l0
-283 26 -53 c84 -168 324 -168 408 0 l26 53 0 285 c0 319 -3 333 -71 398 -67
63 -173 82 -254 44z"/>
<path d="M4105 4530 c-58 -29 -749 -723 -770 -774 -21 -50 -21 -132 0 -182 46
-110 171 -167 286 -129 50 16 80 43 421 384 360 360 367 367 383 425 34 118
-19 235 -127 280 -53 22 -144 20 -193 -4z"/>
<path d="M158 2895 c-161 -59 -210 -263 -90 -377 80 -77 46 -73 622 -73 563 0
561 0 628 59 70 61 94 173 57 264 -22 55 -93 116 -150 131 -69 17 -1018 14
-1067 -4z"/>
<path d="M3888 2898 c-51 -13 -122 -78 -143 -130 -37 -91 -13 -203 57 -264 67
-59 65 -59 628 -59 483 0 517 1 550 19 194 103 181 360 -22 432 -33 11 -128
14 -537 13 -291 -1 -511 -5 -533 -11z"/>
<path d="M1475 1896 c-39 -18 -129 -103 -401 -377 -194 -195 -359 -368 -367
-384 -24 -49 -30 -101 -17 -155 34 -142 188 -219 320 -159 59 26 717 679 761
754 23 40 29 62 29 110 -1 177 -168 286 -325 211z"/>
<path d="M3455 1901 c-124 -57 -173 -210 -106 -326 44 -75 702 -728 761 -754
64 -29 134 -27 199 5 113 57 160 196 104 309 -8 16 -173 189 -367 384 -381
383 -403 401 -501 401 -27 0 -68 -9 -90 -19z"/>
<path d="M2465 1491 c-22 -10 -54 -34 -72 -52 -64 -68 -63 -55 -63 -626 0
-483 2 -521 19 -558 67 -144 255 -181 370 -72 73 69 71 52 71 632 0 580 2 563
-71 632 -67 63 -173 82 -254 44z"/>
</g>
</svg>
